# Blender v2.93.5 OBJ File: 'halfcube.blend'
# www.blender.org
mtllib halfarrow.mtl
o arrow
v -1.052334 0.276989 0.000000
v -0.799091 0.276989 0.000000
v -1.052334 0.715951 -0.768170
v -0.799091 0.715951 -0.768170
v -1.052334 0.628501 -0.768170
v -0.799091 0.628501 -0.768170
v -1.080472 0.246045 0.000000
v -0.799091 0.246045 0.000000
v -1.080472 0.744089 -0.796308
v -0.799091 0.744089 -0.796308
v -1.080472 0.610433 -0.796308
v -0.799091 0.610433 -0.796308
v -0.799091 0.715951 -0.002037
v -0.799091 0.744089 -0.002479
v -0.925802 0.715951 -0.000541
v -0.799091 0.729726 -0.002255
v -1.052334 0.715951 0.000956
v -1.080472 0.744089 -0.001000
v -0.939474 0.744089 -0.001741
vn 0.0000 0.0000 1.0000
vn 0.0000 0.9093 0.4161
vn 1.0000 0.0000 0.0000
vn 0.0000 1.0000 0.0000
vn 0.0000 0.0000 -1.0000
vn 0.0000 -0.9093 -0.4161
vn -1.0000 0.0000 0.0000
vn 0.0000 -1.0000 0.0000
usemtl Default_OBJ
s 1
f 3//1 5//1 4//1
f 4//1 5//1 6//1
f 5//2 1//2 6//2
f 6//2 1//2 2//2
f 5//3 3//3 1//3
f 1//3 3//3 17//3
f 9//4 18//4 19//4 10//4
f 10//4 19//4 14//4
f 11//5 9//5 12//5
f 12//5 9//5 10//5
f 7//6 11//6 8//6
f 8//6 11//6 12//6
f 2//3 8//3 12//3
f 10//3 4//3 12//3
f 12//3 4//3 6//3
f 12//3 6//3 2//3
f 11//7 7//7 9//7
f 9//7 7//7 18//7
f 13//8 15//8 3//8 4//8
f 14//3 16//3 4//3 10//3
f 16//3 13//3 4//3
f 15//8 17//8 3//8
